<?xml version="1.0" encoding="UTF-8"?>
<svg version="1.1" xmlns="http://www.w3.org/2000/svg" width="192" height="192">
<path d="M0 0 C3.24191461 1.4519344 5.47306008 3.5339502 8 6 C9.60186696 7.44006222 11.20618999 8.87739544 12.8125 10.3125 C13.65683594 11.08464844 14.50117187 11.85679688 15.37109375 12.65234375 C17.97796003 14.98031795 20.65185814 17.18473194 23.375 19.375 C27.92780507 23.05571847 32.23417411 26.92648648 36.5168457 30.91137695 C40.62414583 34.71064617 44.91592043 38.23622049 49.2734375 41.74609375 C53.12012709 44.92595033 56.78155918 48.29316999 60.45703125 51.66796875 C66.07533826 56.82024108 71.87369577 61.75854668 77.6875 66.6875 C78.2345459 67.15148193 78.7815918 67.61546387 79.34521484 68.09350586 C81.80960352 70.17642067 84.28662676 72.2233712 86.83203125 74.20703125 C89.30565649 76.25278618 89.89448916 77.12124542 90.2734375 80.27734375 C90.37437545 82.92114163 90.37008781 85.37890748 90 88 C86.99859311 91.19504605 82.83870736 91.7893627 78.56471252 92.10183716 C71.09263229 91.80514292 63.53579025 86.89865404 57.00390625 83.5078125 C56.18030106 83.08472809 55.35669586 82.66164368 54.50813293 82.22573853 C52.75826329 81.32598289 51.00945669 80.42415714 49.26165771 79.52038574 C46.52987885 78.10813582 43.79485755 76.70234166 41.05908203 75.29785156 C32.86694324 71.0874821 24.68988958 66.85111002 16.55078125 62.5390625 C15.30858316 61.88381761 14.06631701 61.22870172 12.82397461 60.57373047 C10.58930135 59.39209182 8.35930399 58.20155018 6.13500977 57.00048828 C-1.04262035 53.07208874 -1.04262035 53.07208874 -9 52 C-12.51193538 53.14402176 -15.71843717 54.75381293 -19 56.4375 C-19.98258789 56.92468506 -20.96517578 57.41187012 -21.97753906 57.91381836 C-25.3301835 59.58677655 -28.66585293 61.29048851 -32 63 C-33.26483864 63.64512215 -34.52981623 64.28997192 -35.79492188 64.93457031 C-50.169286 72.26638251 -64.47518249 79.73147897 -78.73828125 87.27734375 C-82.93302339 89.49277043 -85.06392373 90.17973747 -89.8125 90.25 C-90.85019531 90.27578125 -91.88789062 90.3015625 -92.95703125 90.328125 C-96.67458551 89.92725907 -99.33739993 88.66260007 -102 86 C-102.23529412 78.70588235 -102.23529412 78.70588235 -101 75 C-99.44140625 73.39453125 -99.44140625 73.39453125 -97.5625 71.8125 C-96.94503906 71.28269531 -96.32757813 70.75289063 -95.69140625 70.20703125 C-94 69 -94 69 -92 69 C-92 68.34 -92 67.68 -92 67 C-90.19921875 65.40625 -90.19921875 65.40625 -87.6875 63.5 C-83.82723383 60.49334199 -80.1569859 57.38247905 -76.5625 54.0625 C-72.07572125 49.92960803 -67.43955573 46.05454502 -62.6953125 42.22265625 C-59.1465565 39.29621833 -55.74548624 36.22384033 -52.34375 33.12890625 C-49.55567415 30.59640402 -46.73089533 28.10980872 -43.88671875 25.640625 C-42.5904538 24.51343809 -41.30175874 23.37750483 -40.01953125 22.234375 C-39.39433594 21.68265625 -38.76914062 21.1309375 -38.125 20.5625 C-37.57070312 20.06878906 -37.01640625 19.57507813 -36.4453125 19.06640625 C-35 18 -35 18 -33 18 C-33 17.34 -33 16.68 -33 16 C-31.36567245 14.52230782 -29.66523632 13.11730681 -27.9375 11.75 C-24.55636207 9.04857537 -21.19803479 6.34606003 -17.9375 3.5 C-12.47299301 -1.15064425 -6.97769015 -0.83830906 0 0 Z " fill="#85C23F" transform="translate(102,0)"/>
<path d="M0 0 C0.88107422 -0.03077637 1.76214844 -0.06155273 2.66992188 -0.09326172 C8.95722555 -0.09446989 8.95722555 -0.09446989 12.22265625 2.8125 C14.17528701 6.55458904 13.84089803 8.49468886 12.625 12.5 C8.54487566 17.82016213 4.70144653 18.48186859 -1.5625 19.4375 C-8.93757409 20.77503962 -15.67353456 22.27775256 -21.375 27.5 C-25.62709935 33.92782308 -26.86352339 39.11026832 -25.98046875 46.74609375 C-24.77040521 52.24993116 -21.91330951 56.00113433 -17.9375 59.875 C-13.3119755 62.80825944 -9.2024445 63.56128911 -3.8125 63.9375 C0.39340281 64.26894343 3.33879373 64.63782034 6.625 67.5 C9.11086192 70.55083054 8.71904915 73.48877362 8.40234375 77.3046875 C6.92342964 81.4813193 4.57523667 84.56225554 0.59301758 86.47705078 C-1.73327938 87.28315087 -4.06237864 87.97706536 -6.4375 88.625 C-13.80766575 90.53511049 -13.80766575 90.53511049 -19.375 95.5 C-20.78936354 99.38949972 -20.50251168 101.78170068 -18.8125 105.4375 C-14.27468897 113.48944079 -8.84200683 117.79139325 -0.88671875 122.5078125 C1.625 124.5 1.625 124.5 2.60546875 127.1171875 C2.61191406 127.90351563 2.61835937 128.68984375 2.625 129.5 C0.625 131.5 0.625 131.5 -2.31640625 131.765625 C-19.73021078 131.69048453 -32.20347785 126.57135621 -44.71484375 114.26171875 C-59.78378487 98.61745829 -64.02376846 81.57832805 -63.71484375 60.359375 C-63.06895116 43.66800972 -54.1224048 28.93826257 -42.375 17.5 C-35.72380629 11.37390053 -28.6662485 7.07727254 -20.375 3.5 C-19.6221875 3.15839844 -18.869375 2.81679688 -18.09375 2.46484375 C-12.22385678 0.24296515 -6.20763681 0.13163022 0 0 Z " fill="#009CD7" transform="translate(92.375,60.5)"/>
<path d="M0 0 C13.11180597 7.72784316 19.5463623 24.0016674 23.53759766 37.86767578 C27.18309834 54.67855378 23.85160081 72.62132216 15 87.125 C13.69257224 89.10072262 12.36294092 91.06215602 11 93 C10.57976562 93.61230469 10.15953125 94.22460938 9.7265625 94.85546875 C1.18656368 106.1512828 -12.9788676 113.32129164 -26.34375 116.8828125 C-30.43339817 117.06323815 -32.74525608 115.07549478 -35.75 112.5 C-40.27787819 107.06654617 -38.45764649 95.72438733 -38 89 C-36.05361236 73.03182165 -27.73340859 59.16911273 -19 46 C-17.18830562 43.07428237 -15.37884716 40.1473282 -13.578125 37.21484375 C-12 35 -12 35 -9 33 C-6.66800612 32.92094936 -4.33167378 32.91201231 -2 33 C0.28638059 37.57276117 -0.47355953 43.1732273 -1.84765625 47.94140625 C-2.99119302 50.99747838 -4.21745491 53.99969182 -5.5 57 C-6.34624108 59.04063541 -7.19011888 61.082253 -8.03125 63.125 C-8.40830078 64.01445312 -8.78535156 64.90390625 -9.17382812 65.8203125 C-10.1181423 67.92319327 -10.1181423 67.92319327 -10 70 C-2.00161069 62.91571233 1.27177417 54.58528255 2 44 C2.1185393 31.46446866 -1.20660712 22.64154034 -9 13 C-11.46324069 9.30513897 -11.38991688 7.36706908 -11 3 C-8.82830882 -1.20765167 -4.14448486 -1.07771072 0 0 Z " fill="#85C240" transform="translate(134,75)"/>
<path d="M0 0 C3.2615774 1.46240314 6.3838754 3.08125227 9.52734375 4.78222656 C10.67243408 5.37865967 11.81752441 5.97509277 12.99731445 6.58959961 C16.35182924 8.34189499 19.69043515 10.12169231 23.02734375 11.90722656 C24.63429693 12.75180839 26.24223732 13.59451707 27.8515625 14.43457031 C33.82449753 17.56032029 39.78858514 20.70230482 45.7265625 23.89404297 C49.18265368 25.75068419 52.64785785 27.58945663 56.11782837 29.42001343 C57.50284187 30.15459564 58.8847447 30.89507669 60.26327515 31.64175415 C62.211959 32.69631122 64.17075609 33.72937649 66.1328125 34.75878906 C67.26871826 35.3654541 68.40462402 35.97211914 69.57495117 36.59716797 C74.80403266 38.58141599 79.07491647 38.63034778 84.40234375 36.65722656 C87.15299817 34.82345695 87.73624352 33.82728503 89.02734375 30.90722656 C89.31262278 34.28619821 89.44068512 37.53523117 89.02734375 40.90722656 C86.02593686 44.10227261 81.86605111 44.69658927 77.59205627 45.00906372 C70.11997604 44.71236949 62.563134 39.8058806 56.03125 36.41503906 C55.20764481 35.99195465 54.38403961 35.56887024 53.53547668 35.13296509 C51.78560704 34.23320945 50.03680044 33.3313837 48.28900146 32.4276123 C45.5572226 31.01536238 42.8222013 29.60956822 40.08642578 28.20507812 C31.89428699 23.99470866 23.71723333 19.75833658 15.578125 15.44628906 C14.33592691 14.79104417 13.09366076 14.13592828 11.85131836 13.48095703 C9.6166451 12.29931838 7.38664774 11.10877674 5.16235352 9.90771484 C-2.0152766 5.9793153 -2.0152766 5.9793153 -9.97265625 4.90722656 C-13.48459163 6.05124832 -16.69109342 7.66103949 -19.97265625 9.34472656 C-20.95524414 9.83191162 -21.93783203 10.31909668 -22.95019531 10.82104492 C-26.30283975 12.49400311 -29.63850918 14.19771507 -32.97265625 15.90722656 C-34.23749489 16.55234871 -35.50247248 17.19719849 -36.76757812 17.84179688 C-51.14194225 25.17360908 -65.44783874 32.63870553 -79.7109375 40.18457031 C-83.90567964 42.399997 -86.03657998 43.08696403 -90.78515625 43.15722656 C-91.82285156 43.18300781 -92.86054687 43.20878906 -93.9296875 43.23535156 C-97.64724176 42.83448563 -100.31005618 41.56982663 -102.97265625 38.90722656 C-103.01346408 36.90764293 -103.01519981 34.90677402 -102.97265625 32.90722656 C-98.97265625 34.90722656 -98.97265625 34.90722656 -97.16015625 36.03222656 C-92.72535675 37.80614636 -88.86747306 37.26438412 -84.50756836 35.52416992 C-83.26845202 34.88346734 -82.03708078 34.22763543 -80.8125 33.55957031 C-79.3969882 32.81979448 -77.98146005 32.08004992 -76.56591797 31.34033203 C-75.82073914 30.944328 -75.0755603 30.54832397 -74.30780029 30.14031982 C-71.08867011 28.44042994 -67.84266413 26.79530601 -64.59658813 25.14761353 C-61.12080475 23.38224488 -57.65177998 21.60378622 -54.18237305 19.82592773 C-51.54222912 18.47335008 -48.90103239 17.12284438 -46.25976562 15.77246094 C-45.39515717 15.32945648 -44.53054871 14.88645203 -43.63973999 14.43002319 C-41.91495081 13.54703492 -40.18890659 12.66649363 -38.46157837 11.78848267 C-34.35143571 9.68949017 -30.29029413 7.5424455 -26.28857422 5.24267578 C-17.31566369 0.12321942 -10.35905307 -3.80807503 0 0 Z " fill="#070A04" transform="translate(102.97265625,47.0927734375)"/>
<path d="M0 0 C4.10488479 2.82780952 7.56757505 6.44765011 9.8125 10.9375 C10.52057275 17.26534004 11.04429894 23.18382273 7.125 28.5 C2.31755757 33.86041116 -2.20702975 37.48688073 -9.5 38.3125 C-15.58522336 37.69366373 -19.57685601 35.40808799 -24.0625 31.3125 C-27.211701 26.31082782 -28.76815122 21.39949593 -27.7734375 15.46875 C-25.54200416 8.11237636 -21.80313409 3.87872882 -15.1875 -0.0625 C-10.0582896 -1.7722368 -5.12602784 -1.70867595 0 0 Z " fill="#019CD7" transform="translate(100.1875,84.0625)"/>
<path d="M0 0 C1.16660156 -0.01224609 2.33320313 -0.02449219 3.53515625 -0.03710938 C5.20384766 -0.04000977 5.20384766 -0.04000977 6.90625 -0.04296875 C7.93041016 -0.04707764 8.95457031 -0.05118652 10.00976562 -0.05541992 C12.5 0.1875 12.5 0.1875 14.5 2.1875 C14.75878906 4.67773437 14.75878906 4.67773437 14.765625 7.78125 C14.76949219 9.44994141 14.76949219 9.44994141 14.7734375 11.15234375 C14.76570313 12.31894531 14.75796875 13.48554687 14.75 14.6875 C14.75773437 15.85410156 14.76546875 17.02070312 14.7734375 18.22265625 C14.77085937 19.33511719 14.76828125 20.44757812 14.765625 21.59375 C14.76336914 22.61791016 14.76111328 23.64207031 14.75878906 24.69726562 C14.5 27.1875 14.5 27.1875 12.5 29.1875 C5.92079057 30.11845466 5.92079057 30.11845466 2.67724609 27.99316406 C0.90475815 26.34360262 -0.71005439 24.62745632 -2.3125 22.8125 C-3.42130515 21.61545084 -4.53191599 20.42007112 -5.64453125 19.2265625 C-6.12253174 18.69240723 -6.60053223 18.15825195 -7.09301758 17.60791016 C-8.64564374 15.94540304 -8.64564374 15.94540304 -11.5 14.1875 C-11.5 13.5275 -11.5 12.8675 -11.5 12.1875 C-12.49 11.8575 -13.48 11.5275 -14.5 11.1875 C-14.5 7.8875 -14.5 4.5875 -14.5 1.1875 C-10.26620814 -0.92939593 -4.65160218 0.00256995 0 0 Z " fill="#0499D4" transform="translate(164.5,23.8125)"/>
<path d="M0 0 C0 3.73447543 -1.0271581 4.68300337 -3.25 7.625 C-6.57076605 12.25130916 -9.03916184 16.6621628 -11 22 C-11.2990625 22.73734375 -11.598125 23.4746875 -11.90625 24.234375 C-17.36907994 40.11704724 -14.94739286 59.29693464 -7.8125 74.125 C0.3720463 90.09834674 12.55875805 99.59656893 29 106 C33.27352654 107.27397564 37.5556561 108.20834276 42 108.625 C42.763125 108.69976562 43.52625 108.77453125 44.3125 108.8515625 C44.869375 108.90054688 45.42625 108.94953125 46 109 C46 109.66 46 110.32 46 111 C28.08643999 111.45866868 15.38388938 107.77599849 2.11376953 95.19189453 C-11.93013475 81.37442874 -18.16951121 65.59349304 -18.375 46.0625 C-18.43267054 28.19729313 -12.25452272 13.15119511 0 0 Z " fill="#515B5E" transform="translate(47,81)"/>
<path d="M0 0 C0.66 0.33 1.32 0.66 2 1 C1.67 1.66 1.34 2.32 1 3 C0.32649231 5.70012347 0.32649231 5.70012347 1 9 C2.57765862 11.28427192 4.33347566 13.36219703 6.11328125 15.4921875 C13.63680703 25.49240189 14.66675836 35.9119178 14 48 C12.1737514 59.31345533 5.96180956 68.13079572 -3 75 C-3.66 74.67 -4.32 74.34 -5 74 C-4.55269531 73.5153125 -4.10539062 73.030625 -3.64453125 72.53125 C5.16772965 62.76072619 10.82573529 52.76791157 10.21484375 39.1328125 C9.24791814 29.53387828 5.82921715 19.83102482 -0.875 12.6875 C-3 10 -3 10 -3.5 6.3125 C-3 3 -3 3 -1.5 1.0625 C-1.005 0.711875 -0.51 0.36125 0 0 Z " fill="#586054" transform="translate(126,75)"/>
<path d="M0 0 C0.66 0.33 1.32 0.66 2 1 C1.62230469 1.51304688 1.24460937 2.02609375 0.85546875 2.5546875 C-12.50257912 21.13707728 -29.72265188 45.73548596 -26 70 C-25.07733769 73.8565957 -23.97841217 77.05314951 -21.0625 79.875 C-19.0607984 80.96683724 -17.06838962 82.03967625 -15 83 C-18.19998568 84.00570979 -19.54084019 84.21864753 -22.625 82.75 C-25.95226357 80.2983321 -27.67657397 78.97027808 -29 75 C-30.48666286 50.75033528 -23.25782435 32.99148232 -10 13 C-8.18830562 10.07428237 -6.37884716 7.1473282 -4.578125 4.21484375 C-3 2 -3 2 0 0 Z " fill="#585D59" transform="translate(125,108)"/>
<path d="M0 0 C0 3 0 3 -0.9765625 4.82421875 C-3.25032414 9.65813186 -2.84610161 16.14757361 -1.34765625 21.19921875 C0.93984933 25.7251418 4.29403963 28.39634616 9 30 C14.41708934 30.92205776 18.24510052 29.60387353 23 27 C23.66 27.33 24.32 27.66 25 28 C20.65625176 31.72321278 17.40607813 33.7276138 11.6875 34.375 C5.60227664 33.75616373 1.61064399 31.47058799 -2.875 27.375 C-6.024201 22.37332782 -7.58065122 17.46199593 -6.5859375 11.53125 C-5.20196408 6.96870025 -3.29080101 3.51775281 0 0 Z " fill="#4F5B5E" transform="translate(79,88)"/>
<path d="M0 0 C0.66 0.33 1.32 0.66 2 1 C-0.23091289 3.57901412 -1.74892988 4.43124289 -5.09765625 4.9921875 C-5.89518311 5.1375293 -6.69270996 5.28287109 -7.5144043 5.43261719 C-8.35527588 5.57860352 -9.19614746 5.72458984 -10.0625 5.875 C-17.3472161 7.25365436 -23.64683672 9.01498242 -30 13 C-28.32740166 7.98220498 -23.54963333 6.30126802 -19 4 C-14.13683254 2.1763122 -9.02759844 1.68528279 -3.8828125 1.24609375 C-1.91352564 1.09323004 -1.91352564 1.09323004 0 0 Z " fill="#515C5D" transform="translate(101,74)"/>
<path d="M0 0 C0 3.73447543 -1.0271581 4.68300337 -3.25 7.625 C-8.95288456 15.56994603 -11.66905447 23.55260714 -14 33 C-16 30 -16 30 -15.625 26.1875 C-13.1745658 16.46532275 -6.83188149 7.17347556 0 0 Z " fill="#4B636B" transform="translate(47,81)"/>
<path d="M0 0 C-2.74606588 3.65784557 -6.81208803 4.45422699 -11 5.6875 C-11.72445312 5.91244141 -12.44890625 6.13738281 -13.1953125 6.36914062 C-16.22362866 7.28825134 -18.8185827 8 -22 8 C-17.33104119 3.89697559 -6.42418854 -3.21209427 0 0 Z " fill="#4F5C5B" transform="translate(96,144)"/>
<path d="M0 0 C-9 4.5 -9 4.5 -18 9 C-16.74248595 5.22745785 -15.50599175 4.82519524 -12.125 2.875 C-11.24070312 2.35679688 -10.35640625 1.83859375 -9.4453125 1.3046875 C-5.82215924 -0.62843261 -3.89492475 -1.20876975 0 0 Z " fill="#4A6166" transform="translate(89,78)"/>
<path d="M0 0 C0.66 0.33 1.32 0.66 2 1 C-2.625 6.875 -2.625 6.875 -6 8 C-4.73058503 4.08597051 -3.48832306 2.20927127 0 0 Z " fill="#555E4F" transform="translate(125,108)"/>
<path d="M0 0 C0.33 0.99 0.66 1.98 1 3 C-0.32 4.32 -1.64 5.64 -3 7 C-3.33 6.34 -3.66 5.68 -4 5 C-2.52830189 1.26415094 -2.52830189 1.26415094 0 0 Z " fill="#505351" transform="translate(108,134)"/>
</svg>
